<svg xmlns="http://www.w3.org/2000/svg" width="95" height="27" fill="none" viewBox="0 0 95 27"><path fill="#000" d="M27.3244 10H25.2054V3.45455H27.3915C28.0328 3.45455 28.5836 3.58558 29.0439 3.84766C29.5041 4.1076 29.8567 4.48153 30.1017 4.96946C30.3489 5.45526 30.4725 6.038 30.4725 6.71768C30.4725 7.3995 30.3478 7.98544 30.0985 8.4755C29.8514 8.96555 29.4934 9.34268 29.0247 9.60689C28.5559 9.86896 27.9892 10 27.3244 10ZM26.193 9.13707H27.2701C27.7686 9.13707 28.1831 9.04332 28.5133 8.85582C28.8436 8.66619 29.0907 8.3924 29.2548 8.03445C29.4189 7.67436 29.5009 7.23544 29.5009 6.71768C29.5009 6.20419 29.4189 5.76847 29.2548 5.41051C29.0929 5.05256 28.851 4.78089 28.5293 4.59553C28.2076 4.41016 27.8081 4.31747 27.3308 4.31747H26.193V9.13707ZM33.7396 10.0991C33.2559 10.0991 32.8394 9.99574 32.49 9.78906C32.1427 9.58026 31.8742 9.28729 31.6846 8.91016C31.4971 8.53089 31.4033 8.08665 31.4033 7.57741C31.4033 7.07457 31.4971 6.63139 31.6846 6.24787C31.8742 5.86435 32.1384 5.56499 32.4772 5.34979C32.8181 5.13459 33.2165 5.02699 33.6725 5.02699C33.9495 5.02699 34.218 5.0728 34.4779 5.16442C34.7378 5.25604 34.9711 5.39986 35.1778 5.59588C35.3845 5.7919 35.5475 6.04652 35.6668 6.35973C35.7861 6.67081 35.8458 7.04901 35.8458 7.49432V7.8331H31.9434V7.11719H34.9094C34.9094 6.86577 34.8582 6.64311 34.7559 6.44922C34.6537 6.2532 34.5099 6.09872 34.3245 5.9858C34.1412 5.87287 33.926 5.81641 33.6789 5.81641C33.4104 5.81641 33.176 5.88246 32.9758 6.01456C32.7776 6.14453 32.6242 6.31499 32.5155 6.52592C32.409 6.73473 32.3557 6.96165 32.3557 7.20668V7.76598C32.3557 8.09411 32.4133 8.37322 32.5283 8.60334C32.6455 8.83345 32.8085 9.00923 33.0173 9.13068C33.2261 9.25 33.4701 9.30966 33.7492 9.30966C33.9303 9.30966 34.0954 9.28409 34.2446 9.23295C34.3937 9.17969 34.5226 9.10085 34.6313 8.99645C34.74 8.89205 34.8231 8.76314 34.8806 8.60973L35.7851 8.77273C35.7126 9.03906 35.5827 9.27237 35.3952 9.47266C35.2098 9.67081 34.9765 9.82528 34.6952 9.93608C34.4161 10.0447 34.0976 10.0991 33.7396 10.0991ZM37.8617 3.45455V10H36.9061V3.45455H37.8617ZM39.1473 10V5.09091H40.1029V10H39.1473ZM39.6299 4.33345C39.4637 4.33345 39.3209 4.27805 39.2016 4.16726C39.0844 4.05433 39.0258 3.9201 39.0258 3.76456C39.0258 3.60689 39.0844 3.47266 39.2016 3.36186C39.3209 3.24893 39.4637 3.19247 39.6299 3.19247C39.7961 3.19247 39.9378 3.24893 40.055 3.36186C40.1743 3.47266 40.2339 3.60689 40.2339 3.76456C40.2339 3.9201 40.1743 4.05433 40.055 4.16726C39.9378 4.27805 39.7961 4.33345 39.6299 4.33345ZM45.5881 5.09091L43.8079 10H42.7852L41.0018 5.09091H42.0277L43.271 8.86861H43.3221L44.5621 5.09091H45.5881ZM48.4349 10.0991C47.9513 10.0991 47.5347 9.99574 47.1853 9.78906C46.838 9.58026 46.5695 9.28729 46.3799 8.91016C46.1924 8.53089 46.0986 8.08665 46.0986 7.57741C46.0986 7.07457 46.1924 6.63139 46.3799 6.24787C46.5695 5.86435 46.8337 5.56499 47.1725 5.34979C47.5134 5.13459 47.9118 5.02699 48.3678 5.02699C48.6448 5.02699 48.9133 5.0728 49.1732 5.16442C49.4331 5.25604 49.6665 5.39986 49.8731 5.59588C50.0798 5.7919 50.2428 6.04652 50.3621 6.35973C50.4814 6.67081 50.5411 7.04901 50.5411 7.49432V7.8331H46.6388V7.11719H49.6047C49.6047 6.86577 49.5535 6.64311 49.4513 6.44922C49.349 6.2532 49.2052 6.09872 49.0198 5.9858C48.8366 5.87287 48.6214 5.81641 48.3742 5.81641C48.1057 5.81641 47.8714 5.88246 47.6711 6.01456C47.4729 6.14453 47.3195 6.31499 47.2108 6.52592C47.1043 6.73473 47.051 6.96165 47.051 7.20668V7.76598C47.051 8.09411 47.1086 8.37322 47.2236 8.60334C47.3408 8.83345 47.5038 9.00923 47.7126 9.13068C47.9214 9.25 48.1654 9.30966 48.4445 9.30966C48.6256 9.30966 48.7907 9.28409 48.9399 9.23295C49.089 9.17969 49.218 9.10085 49.3266 8.99645C49.4353 8.89205 49.5184 8.76314 49.5759 8.60973L50.4804 8.77273C50.4079 9.03906 50.278 9.27237 50.0905 9.47266C49.9051 9.67081 49.6718 9.82528 49.3905 9.93608C49.1114 10.0447 48.7929 10.0991 48.4349 10.0991ZM51.6014 10V5.09091H52.525V5.87074H52.5762C52.6657 5.60653 52.8233 5.39879 53.0492 5.24751C53.2772 5.0941 53.535 5.0174 53.8226 5.0174C53.8823 5.0174 53.9526 5.01953 54.0336 5.02379C54.1167 5.02805 54.1816 5.03338 54.2285 5.03977V5.95384C54.1902 5.94318 54.122 5.93146 54.024 5.91868C53.926 5.90376 53.8279 5.89631 53.7299 5.89631C53.5041 5.89631 53.3027 5.94425 53.1259 6.04013C52.9512 6.13388 52.8127 6.26491 52.7104 6.43324C52.6081 6.59943 52.557 6.78906 52.557 7.00213V10H51.6014ZM59.7289 5.09091V5.85795H57.0474V5.09091H59.7289ZM57.7665 3.91477H58.7221V8.55859C58.7221 8.74396 58.7498 8.88352 58.8052 8.97727C58.8606 9.06889 58.932 9.13175 59.0194 9.16584C59.1088 9.1978 59.2058 9.21378 59.3102 9.21378C59.3869 9.21378 59.454 9.20845 59.5115 9.1978C59.5691 9.18714 59.6138 9.17862 59.6458 9.17223L59.8184 9.96165C59.763 9.98295 59.6841 10.0043 59.5819 10.0256C59.4796 10.049 59.3517 10.0618 59.1983 10.0639C58.9469 10.0682 58.7125 10.0234 58.4952 9.92969C58.2779 9.83594 58.1021 9.69105 57.9679 9.49503C57.8336 9.29901 57.7665 9.05291 57.7665 8.75675V3.91477ZM62.801 10.0991C62.3408 10.0991 61.9392 9.99361 61.5961 9.78267C61.2531 9.57173 60.9868 9.27663 60.7971 8.89737C60.6075 8.51811 60.5127 8.07493 60.5127 7.56783C60.5127 7.05859 60.6075 6.61328 60.7971 6.23189C60.9868 5.8505 61.2531 5.55433 61.5961 5.34339C61.9392 5.13246 62.3408 5.02699 62.801 5.02699C63.2613 5.02699 63.6629 5.13246 64.0059 5.34339C64.349 5.55433 64.6153 5.8505 64.805 6.23189C64.9946 6.61328 65.0894 7.05859 65.0894 7.56783C65.0894 8.07493 64.9946 8.51811 64.805 8.89737C64.6153 9.27663 64.349 9.57173 64.0059 9.78267C63.6629 9.99361 63.2613 10.0991 62.801 10.0991ZM62.8042 9.29688C63.1025 9.29688 63.3497 9.21804 63.5457 9.06037C63.7417 8.9027 63.8866 8.69283 63.9804 8.43075C64.0763 8.16868 64.1242 7.87997 64.1242 7.56463C64.1242 7.25142 64.0763 6.96378 63.9804 6.7017C63.8866 6.4375 63.7417 6.2255 63.5457 6.0657C63.3497 5.90589 63.1025 5.82599 62.8042 5.82599C62.5038 5.82599 62.2545 5.90589 62.0564 6.0657C61.8604 6.2255 61.7144 6.4375 61.6185 6.7017C61.5248 6.96378 61.4779 7.25142 61.4779 7.56463C61.4779 7.87997 61.5248 8.16868 61.6185 8.43075C61.7144 8.69283 61.8604 8.9027 62.0564 9.06037C62.2545 9.21804 62.5038 9.29688 62.8042 9.29688Z"/><path fill="#F90" d="M25.0154 23V14.2727H26.3322V21.8665H30.2868V23H25.0154ZM34.4437 23.1321C33.8301 23.1321 33.2946 22.9915 32.8372 22.7102C32.3798 22.429 32.0247 22.0355 31.7718 21.5298C31.519 21.0241 31.3926 20.4332 31.3926 19.7571C31.3926 19.0781 31.519 18.4844 31.7718 17.9759C32.0247 17.4673 32.3798 17.0724 32.8372 16.7912C33.2946 16.5099 33.8301 16.3693 34.4437 16.3693C35.0574 16.3693 35.5929 16.5099 36.0502 16.7912C36.5076 17.0724 36.8627 17.4673 37.1156 17.9759C37.3684 18.4844 37.4949 19.0781 37.4949 19.7571C37.4949 20.4332 37.3684 21.0241 37.1156 21.5298C36.8627 22.0355 36.5076 22.429 36.0502 22.7102C35.5929 22.9915 35.0574 23.1321 34.4437 23.1321ZM34.448 22.0625C34.8457 22.0625 35.1752 21.9574 35.4366 21.7472C35.698 21.5369 35.8912 21.2571 36.0162 20.9077C36.144 20.5582 36.2079 20.1733 36.2079 19.7528C36.2079 19.3352 36.144 18.9517 36.0162 18.6023C35.8912 18.25 35.698 17.9673 35.4366 17.7543C35.1752 17.5412 34.8457 17.4347 34.448 17.4347C34.0474 17.4347 33.715 17.5412 33.4508 17.7543C33.1895 17.9673 32.9949 18.25 32.867 18.6023C32.742 18.9517 32.6795 19.3352 32.6795 19.7528C32.6795 20.1733 32.742 20.5582 32.867 20.9077C32.9949 21.2571 33.1895 21.5369 33.4508 21.7472C33.715 21.9574 34.0474 22.0625 34.448 22.0625ZM40.1912 19.1136V23H38.9171V16.4545H40.1401V17.5199H40.2211C40.3716 17.1733 40.6074 16.8949 40.9284 16.6847C41.2523 16.4744 41.66 16.3693 42.1515 16.3693C42.5975 16.3693 42.9881 16.4631 43.3233 16.6506C43.6586 16.8352 43.9185 17.1108 44.1032 17.4773C44.2878 17.8437 44.3801 18.2969 44.3801 18.8366V23H43.106V18.9901C43.106 18.5156 42.9824 18.1449 42.7353 17.8778C42.4881 17.608 42.1486 17.473 41.7168 17.473C41.4213 17.473 41.1586 17.5369 40.9284 17.6648C40.7012 17.7926 40.5208 17.9801 40.3873 18.2273C40.2566 18.4716 40.1912 18.767 40.1912 19.1136ZM48.5392 23.1278C48.0108 23.1278 47.5392 22.9929 47.1245 22.723C46.7125 22.4503 46.3887 22.0625 46.1529 21.5597C45.9199 21.054 45.8034 20.4474 45.8034 19.7401C45.8034 19.0327 45.9213 18.4276 46.1571 17.9247C46.3958 17.4219 46.7225 17.0369 47.1373 16.7699C47.552 16.5028 48.0222 16.3693 48.5478 16.3693C48.954 16.3693 49.2807 16.4375 49.5279 16.5739C49.7779 16.7074 49.9711 16.8636 50.1074 17.0426C50.2466 17.2216 50.3546 17.3793 50.4313 17.5156H50.508V14.2727H51.7821V23H50.5378V21.9815H50.4313C50.3546 22.1207 50.2438 22.2798 50.0989 22.4588C49.9569 22.6378 49.7608 22.794 49.5108 22.9276C49.2608 23.0611 48.937 23.1278 48.5392 23.1278ZM48.8205 22.0412C49.187 22.0412 49.4966 21.9446 49.7495 21.7514C50.0051 21.5554 50.1983 21.2841 50.329 20.9375C50.4625 20.5909 50.5293 20.1875 50.5293 19.7273C50.5293 19.2727 50.464 18.875 50.3333 18.5341C50.2026 18.1932 50.0108 17.9276 49.758 17.7372C49.5051 17.5469 49.1926 17.4517 48.8205 17.4517C48.437 17.4517 48.1174 17.5511 47.8617 17.75C47.606 17.9489 47.4128 18.2202 47.2821 18.5639C47.1543 18.9077 47.0904 19.2955 47.0904 19.7273C47.0904 20.1648 47.1557 20.5582 47.2864 20.9077C47.4171 21.2571 47.6103 21.5341 47.8659 21.7386C48.1245 21.9403 48.4426 22.0412 48.8205 22.0412ZM56.3578 23.1321C55.7441 23.1321 55.2086 22.9915 54.7512 22.7102C54.2939 22.429 53.9387 22.0355 53.6859 21.5298C53.4331 21.0241 53.3066 20.4332 53.3066 19.7571C53.3066 19.0781 53.4331 18.4844 53.6859 17.9759C53.9387 17.4673 54.2939 17.0724 54.7512 16.7912C55.2086 16.5099 55.7441 16.3693 56.3578 16.3693C56.9714 16.3693 57.5069 16.5099 57.9643 16.7912C58.4217 17.0724 58.7768 17.4673 59.0297 17.9759C59.2825 18.4844 59.4089 19.0781 59.4089 19.7571C59.4089 20.4332 59.2825 21.0241 59.0297 21.5298C58.7768 22.0355 58.4217 22.429 57.9643 22.7102C57.5069 22.9915 56.9714 23.1321 56.3578 23.1321ZM56.362 22.0625C56.7598 22.0625 57.0893 21.9574 57.3507 21.7472C57.612 21.5369 57.8052 21.2571 57.9302 20.9077C58.0581 20.5582 58.122 20.1733 58.122 19.7528C58.122 19.3352 58.0581 18.9517 57.9302 18.6023C57.8052 18.25 57.612 17.9673 57.3507 17.7543C57.0893 17.5412 56.7598 17.4347 56.362 17.4347C55.9615 17.4347 55.6291 17.5412 55.3649 17.7543C55.1035 17.9673 54.9089 18.25 54.7811 18.6023C54.6561 18.9517 54.5936 19.3352 54.5936 19.7528C54.5936 20.1733 54.6561 20.5582 54.7811 20.9077C54.9089 21.2571 55.1035 21.5369 55.3649 21.7472C55.6291 21.9574 55.9615 22.0625 56.362 22.0625ZM62.1053 19.1136V23H60.8311V16.4545H62.0542V17.5199H62.1351C62.2857 17.1733 62.5215 16.8949 62.8425 16.6847C63.1664 16.4744 63.574 16.3693 64.0655 16.3693C64.5115 16.3693 64.9022 16.4631 65.2374 16.6506C65.5726 16.8352 65.8326 17.1108 66.0172 17.4773C66.2019 17.8437 66.2942 18.2969 66.2942 18.8366V23H65.0201V18.9901C65.0201 18.5156 64.8965 18.1449 64.6493 17.8778C64.4022 17.608 64.0627 17.473 63.6309 17.473C63.3354 17.473 63.0726 17.5369 62.8425 17.6648C62.6152 17.7926 62.4348 17.9801 62.3013 18.2273C62.1706 18.4716 62.1053 18.767 62.1053 19.1136ZM78.3251 14.2727V23H77.1149L72.6788 16.5994H72.5978V23H71.2811V14.2727H72.4998L76.9402 20.6818H77.0211V14.2727H78.3251ZM83.0073 23.1193C82.4732 23.1193 81.9931 23.017 81.5669 22.8125C81.1436 22.6051 80.8056 22.321 80.5527 21.9602C80.2999 21.5994 80.165 21.1875 80.1479 20.7244H81.4263C81.4576 21.0994 81.6238 21.4077 81.9249 21.6491C82.226 21.8906 82.5868 22.0114 83.0073 22.0114C83.3425 22.0114 83.6394 21.9347 83.8979 21.7812C84.1593 21.625 84.3638 21.4105 84.5115 21.1378C84.6621 20.8651 84.7374 20.554 84.7374 20.2045C84.7374 19.8494 84.6607 19.5327 84.5073 19.2543C84.3539 18.9759 84.1422 18.7571 83.8723 18.598C83.6053 18.4389 83.2985 18.358 82.9519 18.3551C82.6877 18.3551 82.4221 18.4006 82.155 18.4915C81.888 18.5824 81.6721 18.7017 81.5073 18.8494L80.3013 18.6705L80.7914 14.2727H85.5897V15.402H81.8865L81.6096 17.8438H81.6607C81.8311 17.679 82.057 17.5412 82.3382 17.4304C82.6223 17.3196 82.9263 17.2642 83.2502 17.2642C83.7814 17.2642 84.2544 17.3906 84.6692 17.6435C85.0868 17.8963 85.415 18.2415 85.6536 18.679C85.8951 19.1136 86.0144 19.6136 86.0115 20.179C86.0144 20.7443 85.8865 21.2486 85.628 21.6918C85.3723 22.1349 85.0172 22.4844 84.5627 22.7401C84.111 22.9929 83.5925 23.1193 83.0073 23.1193ZM87.014 14.2727H88.5098L90.7896 18.2401H90.8833L93.1632 14.2727H94.6589L91.4927 19.5739V23H90.1802V19.5739L87.014 14.2727Z"/><path fill="#000" d="M16.8601 14.1747C16.2487 15.5019 15.4212 16.8251 14.5734 18.0126C13.7282 19.1963 12.8802 20.221 12.2423 20.9506C12.1575 21.0475 12.0766 21.1391 12 21.2251C11.9234 21.1391 11.8425 21.0475 11.7577 20.9506C11.1198 20.221 10.2718 19.1963 9.42662 18.0126C8.5788 16.8251 7.75129 15.5019 7.13993 14.1747C6.52227 12.8338 6.16667 11.5774 6.16667 10.5C6.16667 7.04822 8.77834 4.25 12 4.25C15.2217 4.25 17.8333 7.04822 17.8333 10.5C17.8333 11.5774 17.4777 12.8338 16.8601 14.1747ZM12 23C12 23 19 15.8921 19 10.5C19 6.35786 15.866 3 12 3C8.13401 3 5 6.35786 5 10.5C5 15.8921 12 23 12 23Z"/><path fill="#000" d="M12 13C10.7113 13 9.66667 11.8807 9.66667 10.5C9.66667 9.11929 10.7113 8 12 8C13.2887 8 14.3333 9.11929 14.3333 10.5C14.3333 11.8807 13.2887 13 12 13ZM12 14.25C13.933 14.25 15.5 12.5711 15.5 10.5C15.5 8.42893 13.933 6.75 12 6.75C10.067 6.75 8.5 8.42893 8.5 10.5C8.5 12.5711 10.067 14.25 12 14.25Z"/></svg>